<!DOCTYPE svg PUBLIC "-//W3C//DTD SVG 1.1//EN" "http://www.w3.org/Graphics/SVG/1.1/DTD/svg11.dtd">
<!-- Uploaded to: SVG Repo, www.svgrepo.com, Transformed by: SVG Repo Mixer Tools -->
<svg width="800px" height="800px" viewBox="-6 0 20 20" version="1.1" xmlns="http://www.w3.org/2000/svg" xmlns:xlink="http://www.w3.org/1999/xlink" fill="#000000">
<g id="SVGRepo_bgCarrier" stroke-width="0"/>
<g id="SVGRepo_tracerCarrier" stroke-linecap="round" stroke-linejoin="round"/>
<g id="SVGRepo_iconCarrier"> <title>arrow_up_circle [#309]</title> <desc>Created with Sketch.</desc> <defs> </defs> <g id="Page-1" stroke="none" stroke-width="1" fill="none" fill-rule="evenodd"> <g id="Dribbble-Light-Preview" transform="translate(-186.000000, -6799.000000)" fill="#d1d1d1"> <g id="icons" transform="translate(56.000000, 160.000000)"> <path d="M134.000282,6656.99975 C132.897282,6656.99975 132.000282,6656.10275 132.000282,6654.99975 C132.000282,6653.89675 132.897282,6652.99975 134.000282,6652.99975 C135.103282,6652.99975 136.000282,6653.89675 136.000282,6654.99975 C136.000282,6656.10275 135.103282,6656.99975 134.000282,6656.99975 M135.000282,6651.14075 L135.000282,6641.99575 L135.424282,6642.41975 C135.814282,6642.80975 136.448282,6642.80975 136.838282,6642.41875 L136.838282,6642.41875 C137.228282,6642.02775 137.228282,6641.39475 136.836282,6641.00475 L135.410282,6639.58275 C134.631282,6638.80575 133.369282,6638.80575 132.590282,6639.58275 L131.164282,6641.00375 C130.772282,6641.39475 130.772282,6642.02775 131.162282,6642.41875 C131.553282,6642.80975 132.186282,6642.80975 132.576282,6642.41975 L133.000282,6641.99575 L133.000282,6651.14075 C130.992282,6651.66075 129.588282,6653.68375 130.109282,6655.94875 C130.441282,6657.38775 131.608282,6658.55675 133.046282,6658.88975 C135.670282,6659.49575 138.000282,6657.51975 138.000282,6654.99975 C138.000282,6653.13775 136.722282,6651.58675 135.000282,6651.14075" id="arrow_up_circle-[#309]"> </path> </g> </g> </g> </g>
</svg>