<svg xmlns="http://www.w3.org/2000/svg" xml:space="preserve" width="2000" height="430" data-id="lg_kAs48gr5rWmwpszXS4" data-version="1" viewBox="0 0 2000 430"><g data-padding="20"><g transform="translate(10 5.834)scale(.97286)"><path fill="none" stroke="#403e39" stroke-width="3" d="M1307.02 49.6c-25.006-5.01-49.338 11.2-54.347 36.206-5.01 25.005 11.2 49.337 36.207 54.347l-91.8 147.602-.202.323-24.361 53.76-33.294-62.73-1.44-2.644-5.68-10.696-5.84-2.53q-1.757-1.325-3.656-2.514a46.196 46.196 0 1 0-35.426-82.51 46.244 46.244 0 0 0-79.41-1.889q-.783 1.253-1.445 2.582a46.149 46.149 0 1 0 2.473 89.786c4.044 20.993 22.017 36.433 43.379 37.267 3.104 22.106 21.57 38.83 43.873 39.735 22.304.906 42.065-14.266 46.95-36.047l20.758 51.4-25.096 47.564 12.367 7.74 49.008-122.36.885-1.414 22.657-13.38a46.149 46.149 0 0 0 68.602 44.503c20.394 15.308 49.335 11.185 64.644-9.208 15.308-20.394 11.185-49.336-9.208-64.644a46.149 46.149 0 1 0-89.95-11.014 45.77 45.77 0 0 0-32.942 33.77l-17.41 9.576 87.764-141.242a46.24 46.24 0 0 0 36.584-13.887c21.663 4.06 43.174-7.763 51.355-28.229 8.18-20.465.749-43.859-17.744-55.85-18.492-11.992-42.883-9.233-58.23 6.586" vector-effect="non-scaling-stroke"/><path fill="none" stroke="#403e39" stroke-width="3" d="m936.184 397.33-30.295-73.125-5.38-12.805a31.6 31.6 0 0 1 .528-9.665q.858-3.59 2.107-7.348 1.215-3.846 2.129-7.774a126.5 126.5 0 0 0 3.098-23.746l.004-.715c2.886-2.392 4.499-5.013 8.855-6.433 4.948-1.557 23.8-2.102 33.384-15.413 9.647-13.322 18.575-23.012 12.193-49.364-4.735-19.246-11.648-31.357-24.892-49.552-12.185-16.792-10.154-28.052-8.58-35.663s-2.535-4.419-5.182 1.89-13.355 24.457-22.254 31.19-25.602 19.422-29.06 24.998c-3.46 5.576-1.408 7.452-4.367 10.896-2.96 3.443-4.03 12.068-4.565 14.726-.5 2.684-3.62 25.201 5.382 34.64 8.95 9.512 5.964 11.338 10.27 15.508 4.28 4.207 11.878 5.33 16.202 8.132 3.188 2.064 8.169 7.477 10.332 11.637a81 81 0 0 1-1.175 11.142 122 122 0 0 1-5.89 22.456q-1.435 3.628-2.603 7.663l-.163.548-20.783-49.987q-15.281-36.49-30.358-73.113l-1.816-4.578-.926-2.302-.842-2.187a45 45 0 0 0-.531-5.389q-.438-2.842-.632-5.404a27 27 0 0 1 .334-6.548l.13-.736.095-.926c.09-1.11.077-2.227-.038-3.335a31.6 31.6 0 0 0-1.436-5.91q-.952-2.817-2.134-5.463-1.575-3.582-3.427-7.083a18 18 0 0 0 1.515-5.557c.476-4.464 3.184-6.208 6.28-10.714s6.175-16.082 6.739-21.698a76.8 76.8 0 0 0-3.083-24.21 104 104 0 0 0-14.312-22.58c-5.863-6.36-14.19-11.246-21.186-12.83a40.7 40.7 0 0 1-14.212-5.143c-5.435-3.03-10.52-.962-15.722-3.772-5.201-2.81-14.845-6.523-17.33-15.428-2.557-8.956-5.395-6.475-4.568-3.636.815 2.775 2.125 18.247 3.133 22.48 1.01 4.235 2.305 13.577-.454 19.256s-3.258 15.696-3.95 25.357a58.7 58.7 0 0 0 3.82 25.442c2.947 8.401 12.826 16.192 15.213 15.932 2.388-.26 6.312 1.933 9.256 4.267s8.352 4.85 13.386 4.51 7.797 2.255 14.844 2.11c5.515 0 12.327 3.108 16.678 5.875a95 95 0 0 1 5.54 14.074q.73 2.662.95 5.186.07 1.318-.03 2.406l-.572 2.632a31.6 31.6 0 0 0-.41 9.416l-1.23-1.08-7.627-6.437q-3.918-3.07-7.47-6.27l-.884-.785-.44-.474-.223-.155-.318-.333q-1.318-1.032-2.533-1.66-2.48-1.184-4.905-2.053-4.902-1.664-9.755-2.687a181 181 0 0 0-18.753-3.3 13.6 13.6 0 0 1-1.674-2.495c-2.3-4.2-4.827-17.38-20.357-32.54-15.53-15.163-35.005-17.039-44.458-15.269s-40.006 15.58-48.555 18.973-17.547-5.104-17.327-2.58 2.504 4.62 5.692 8.337c3.215 3.682 8.434 2.92 12.55 5.47 4.107 2.485 9.273 8.027 13.365 12.267s9.526 14.602 20.54 25.502c11.012 10.9 29.375 9.792 34.423 9.353s13.38-3.6 15.818-4.486c2.365-.937 9.778-3.968 15.809-9.675 5.032-4.75 9.365-7.4 14.187-9.486a271 271 0 0 1 17.695 4.105q4.734 1.271 9.184 2.95a32 32 0 0 1 4.17 1.923l1.665 1.165.208.255.403.448.945.936q3.72 3.43 7.472 6.66 3.814 3.218 7.376 6.481a81 81 0 0 1 4.929 4.936l.448.7.048.088.152.492q.397 1.325.886 2.44l.864 2.312 1.826 4.64q14.47 36.861 29.182 73.614l2.04 5.122a77 77 0 0 0-6.771-4.902l-3.095-1.723-12.21-6.113-6.942-3.477a18 18 0 0 1-1.778-4.552c-1.132-4.926 1.227-19.1 2.956-27.484 1.666-8.374-5.672-21.06-12.36-26.949-6.661-5.927-19.96-14.346-27.364-16.215-7.478-1.922-18.422-5.826-38.148-.876s-27.818 4.695-37.354 3.43-24.927-11.975-21.356-5.728 15.887 17.726 18.828 21.878c2.904 4.126 4.85 9.622 9.69 23.041 4.854 13.32 5.784 24.446 12.078 35.077 6.293 10.632 16.513 11.55 18.654 15.031 2.167 3.445 11.412 9.304 22.93 9.862 11.53.62 27.484-9.89 32.324-14.446s17.482-7.733 21.102-8.73l5.235 3q5.942 3.328 11.755 6.842c3.75 2.127 7.072 4.946 10.25 8.05q3.42 3.385 6.435 7.037l22.674 56.271 4.929 12.268q-3.93-2.582-7.986-4.427l-4.57-1.982-1.154-.477-.596-.25-.66-.24q-1.18-.44-2.44-.77-4.807-1.323-9.61-2.42l-9.605-2.032-4.842-.96c1.283-4.672-8.8-18.008-8.981-20.506s-5.83-9.48-6.994-13.493c-1.19-3.975-14.697-12.097-18.207-15.434-3.574-3.326-11.24-5.214-23.396-5.335-12.218-.11-36.285 9.47-46.257 17.658-9.91 8.177-21.685 19.734-27.63 29.968s-13.316 18.254-18.475 19.718c-5.186 1.502-20.062.857-20.72 1.72-.66.862 4.854 4.883 9.68 5.392a172 172 0 0 1 21.805 5.876c3.895 1.29 7.442 4.653 10.33 7.776 2.926 3.148 9.425 8.52 14.146 12.65 4.747 4.09 10.116 8.397 15.184 10.452 5.068 2.056 16.646 8.444 20.177 8.597 3.583.08 16.832 3.447 22.247 3.43 5.39.02 14.24-1.676 16.489-4.183 2.286-2.48 4.43-2.47 7.445-5.048s14.578-12.41 19.328-18.02 7.592-17.24 7.789-23.279a36.15 36.15 0 0 1 4.672-15.588l5.534 1.39 9.458 2.48a122 122 0 0 1 11.477 3.613l.496.237.496.237 1.129.514 4.339 2.152a54 54 0 0 1 7.96 5.016q3.466 2.534 6.088 5.801l20.677 50.85.074.05a4.383 4.383 0 0 0 5.675 2.371 4.52 4.52 0 0 0 2.359-5.738M835.83 170.29" vector-effect="non-scaling-stroke"/><path fill="none" stroke="#403e39" stroke-width="3" d="M1146.657 202.486c-23.128 9.793-43.267 23.955-63.912 38.393-11.035 7.725-23.082 14.713-32.186 24.783a36.8 36.8 0 0 0-5.472 8.552q-.276-4.414-.69-8.874 1.288-.276 2.3-1.195 1.057-1.012 1.793-2.07c4.368-1.379 8.046-6.483 11.173-9.885q4.69-5.15 8.966-10.805c15.265-20.002 26.806-43.727 38.623-65.476q11.587-21.243 21.335-43.405 4.828-10.99 9.058-22.162c1.38-3.633 7.265-14.76 7.265-20.645-7.955 4.782-14.714 11.954-21.52 17.84a248.3 248.3 0 0 0-33.242 35.91 156.3 156.3 0 0 0-13.978 22.21c6.529-21.428 13.104-43.13 17.656-65.017 3.08-14.852 4.368-29.197 7.08-44.049 1.932-10.805 5.656-27.542 3.863-38.53-3.908 2.574-4.782 6.896-6.99 10.76a648.3 648.3 0 0 0-46.071 98.12 391 391 0 0 0-11.08 34.76 1127 1127 0 0 0-10.898-68.05c-2.667-13.978-4.46-27.726-7.725-41.52-2.76-11.633-7.862-23.91-8.598-35.956-4.552 10.483-1.38 27.312-1.84 38.945-1.38 31.266-4.367 62.67-3.402 93.8.276 9.425 1.38 19.54 3.219 29.426-7.91-15.495-15.633-30.99-25.657-45.336-7.587-10.943-6.07-12.783-15.495-21.749-8.14-7.816-17.61-26.53-25.473-34.669 0 11.357 2.207 21.61 5.104 30.025 11.495 32.922 21.104 66.58 38.255 97.248 7.77 13.794 16.277 27.496 26.76 39.267 4.047 4.506 16.783 19.771 25.84 22.07l-.045 2.023-.46 9.932c-4.138-8.092-10.897-16.139-14.07-20.23-8.138-10.439-19.035-18.853-28.231-28.187a253 253 0 0 0-29.887-26.668c-10.116-7.357-21.427-13.334-30.99-21.473-8.507-7.265-15.818-17.196-22.945-25.427.598 7.035 4.644 13.334 8 19.634 7.174 13.61 12.875 25.105 22.899 36.784 11.035 12.874 19.035 28.231 32.186 38.853 12.414 9.977 22.392 22.484 34.163 33.473 5.242 4.92 19.633 18.07 27.956 13.15q-.552 10.714-1.84 21.473l-.091.966a39.54 39.54 0 0 0-10.346-15.266c-9.748-7.816-22.392-11.403-33.427-17.012-19.634-9.932-41.842-17.795-63.453-16.875 19.91 3.035 38.853 28.186 53.935 40.37 12.276 9.932 26.208 22.07 41.75 26.21a16.1 16.1 0 0 0 8.92.46c-4.506 26.345-12.415 52.876-28.048 74.532-3.495 4.874-8 8.967-11.311 13.932-1.656 2.437 1.47 5.058 3.816 3.817 5.977-3.173 10.392-9.426 14.162-14.852 4.322-6.16 7.817-12.828 10.99-19.633 6.896-15.174 11.632-31.267 14.989-47.59q1.7-8.506 2.942-17.058c8.277 5.977 27.864-8.277 34.21-13.012 11.403-8.369 25.197-19.358 38.715-22.163-15.817-2.989-29.474 6.621-43.038 12.23-2.942 1.242-19.311 4.277-28.231 9.427q1.103-10.76 1.517-21.565c1.977 1.196 4.782 1.793 8.644 1.38 12.875-1.242 24.37-14.254 33.887-21.979a258 258 0 0 0 21.473-19.082q6.345-6.345 11.955-13.288c11.817-14.62 19.54-31.864 34.623-43.819-3.035 1.38-6.207 2.483-9.426 3.817" vector-effect="non-scaling-stroke"/><rect width="427.801" height="320.92" x="294.996" y="-332.731" fill="none" rx="0" ry="0" transform="translate(403.957 429.076)scale(1.21)"/><path fill="#fafaf3" d="M1027.126 290.978V104.722q3.436-.338 12.366-.69 8.942-.338 25.604-1.028t31.786-3.956q15.125-3.255 28.87-9.79 13.747-6.533 21.648-18.04 7.9-11.508 7.9-27.322l4.127.35q0 27.492-20.618 42.097-20.618 14.604-53.615 18.718-2.396 0-7.901-.339v.69q4.815.69 7.9 1.367 11.35 3.098 18.562 12.21 7.212 9.1 7.212 19.238 0 10.14-3.775 14.266l-2.747-2.069q2.057-4.465 2.057-11.338 0-14.435-11.507-23.195-11.52-8.76-29.38-8.76h-4.125l-29.56 1.367v182.48q0 19.24 6.195 28.18 6.183 8.93 23.365 8.93 6.183 0 13.746-1.718l.69 3.437q-6.196 2.057-15.465 2.057-18.222 0-25.773-10.128-7.562-10.14-7.562-30.758m-13.746 0v-182.48l-41.587-2.057q-39.858 0-39.858 30.927 0 11.338 5.845 18.9 5.844 7.563 15.802 7.563 9.97 0 15.633-5.844 5.675-5.845 5.675-15.464 0-3.437-1.028-6.873l3.775-1.38q1.718 4.127 1.718 8.253 0 11.338-6.873 18.38-6.873 7.054-18.73 7.054-11.846 0-19.24-8.772-7.393-8.76-7.393-22.156 0-34.714 46.053-34.714 18.56 0 45.012 2.407v186.256q0 20.618-7.55 30.758-7.563 10.128-25.773 10.128-9.281 0-15.464-2.057l.677-3.437q7.563 1.718 13.746 1.718 17.182 0 23.377-8.93 6.183-8.94 6.183-28.18"/><rect width="427.801" height="321.881" x="294.996" y="-333.211" fill="none" rx="0" ry="0" transform="translate(404.078 429.197)scale(1.21)"/></g><path fill="transparent" stroke="transparent" d="M631.5 0h737v430h-737z"/></g></svg>